<svg xmlns="http://www.w3.org/2000/svg" xmlns:xlink="http://www.w3.org/1999/xlink" width="40" zoomAndPan="magnify" viewBox="0 0 30 30.000001" height="40" preserveAspectRatio="xMidYMid meet" version="1.0"><defs><clipPath id="id1"><path d="M 0.484375 8.332031 L 29.515625 8.332031 L 29.515625 21.394531 L 0.484375 21.394531 Z M 0.484375 8.332031 " clip-rule="nonzero"/></clipPath><clipPath id="id2"><path d="M 1 10 L 29.515625 10 L 29.515625 21 L 1 21 Z M 1 10 " clip-rule="nonzero"/></clipPath><clipPath id="id3"><path d="M 0.546875 8.335938 L 29.425781 8.335938 L 29.425781 21.394531 L 0.546875 21.394531 Z M 0.546875 8.335938 " clip-rule="nonzero"/></clipPath></defs><g clip-path="url(#id1)"><path fill="#ec9740" d="M 0.617188 19.628906 C 0.621094 19.839844 0.628906 20.0625 0.746094 20.242188 C 0.863281 20.425781 1.070312 20.53125 1.269531 20.625 C 1.632812 20.796875 1.992188 20.972656 2.351562 21.144531 C 2.644531 21.285156 2.9375 21.335938 3.261719 21.332031 C 11.179688 21.300781 19.089844 20.78125 26.988281 20.261719 C 27.753906 20.210938 28.621094 20.105469 29.066406 19.5 C 29.453125 18.972656 29.378906 18.257812 29.285156 17.617188 L 14.574219 10.429688 C 14.507812 9.820312 14.175781 9.242188 13.675781 8.871094 C 13.175781 8.496094 12.519531 8.332031 11.898438 8.425781 C 11.382812 8.5 10.910156 8.742188 10.449219 8.980469 C 10.011719 9.207031 9.570312 9.433594 9.132812 9.660156 C 8.199219 10.140625 7.261719 10.625 6.402344 11.21875 C 4.425781 12.578125 2.902344 14.460938 1.492188 16.371094 C 1.285156 16.648438 1.082031 16.929688 0.9375 17.238281 C 0.59375 17.976562 0.601562 18.820312 0.617188 19.628906 " fill-opacity="1" fill-rule="nonzero"/></g><g clip-path="url(#id2)"><path fill="#fcdf7b" d="M 2.5 18.28125 C 2.734375 18.339844 2.941406 18.46875 3.136719 18.609375 C 3.25 18.691406 3.359375 18.785156 3.441406 18.898438 C 3.65625 19.199219 3.609375 19.617188 3.578125 19.984375 C 3.472656 20.121094 3.285156 20.179688 3.105469 20.207031 C 2.929688 20.230469 2.746094 20.234375 2.578125 20.292969 C 2.308594 20.390625 2.082031 20.632812 1.796875 20.601562 C 1.625 20.578125 1.480469 20.457031 1.390625 20.308594 C 1.300781 20.164062 1.253906 20 1.195312 19.839844 C 1.117188 19.632812 1.019531 19.421875 1.027344 19.203125 C 1.035156 18.992188 1.148438 18.792969 1.300781 18.640625 C 1.453125 18.492188 1.644531 18.386719 1.84375 18.300781 C 2.066406 18.207031 2.265625 18.222656 2.5 18.28125 Z M 4.894531 19.703125 C 5.46875 20.027344 5.921875 20.167969 6.554688 19.96875 C 6.765625 19.902344 6.964844 19.804688 7.179688 19.75 C 7.726562 19.601562 8.308594 19.714844 8.878906 19.699219 C 9.160156 19.691406 9.441406 19.652344 9.722656 19.667969 C 10.003906 19.683594 10.292969 19.761719 10.496094 19.953125 C 10.585938 20.039062 10.65625 20.144531 10.753906 20.222656 C 11.050781 20.457031 11.578125 20.304688 11.695312 19.949219 C 11.753906 19.769531 11.722656 19.5625 11.839844 19.410156 C 11.945312 19.277344 12.132812 19.238281 12.304688 19.238281 C 12.738281 19.238281 13.160156 19.4375 13.59375 19.386719 C 13.808594 19.363281 14.007812 19.28125 14.214844 19.21875 C 14.894531 19.007812 15.691406 18.941406 16.375 19.128906 C 17.15625 19.34375 17.980469 19.132812 18.785156 19.070312 C 19.046875 19.050781 19.347656 19.066406 19.507812 19.265625 C 19.5625 19.339844 19.59375 19.425781 19.648438 19.5 C 19.816406 19.707031 20.148438 19.703125 20.394531 19.59375 C 20.636719 19.480469 20.832031 19.285156 21.0625 19.144531 C 21.652344 18.789062 22.410156 18.847656 23.097656 18.972656 C 23.324219 19.015625 23.554688 19.066406 23.789062 19.058594 C 24.105469 19.046875 24.410156 18.9375 24.722656 18.910156 C 25.316406 18.855469 25.921875 19.101562 26.503906 18.980469 C 26.914062 18.898438 27.265625 18.640625 27.671875 18.546875 C 27.933594 18.488281 28.210938 18.496094 28.472656 18.4375 C 28.726562 18.382812 28.984375 18.242188 29.078125 18.011719 C 29.226562 17.914062 29.3125 17.703125 29.25 17.542969 C 27.675781 16.417969 25.789062 15.8125 24.0625 14.929688 C 21.683594 13.722656 19.585938 11.988281 17.082031 11.058594 C 16.3125 10.773438 15.515625 10.570312 14.703125 10.449219 C 14.175781 10.371094 13.59375 10.265625 13.089844 10.4375 C 12.699219 10.574219 12.371094 10.839844 12.003906 11.03125 C 11.5625 11.257812 11.074219 11.371094 10.601562 11.539062 C 10.132812 11.703125 9.664062 11.933594 9.371094 12.328125 C 9.109375 12.679688 9.011719 13.128906 8.757812 13.484375 C 8.511719 13.835938 8.121094 14.09375 7.964844 14.488281 C 7.894531 14.664062 7.878906 14.855469 7.804688 15.03125 C 7.703125 15.265625 7.507812 15.449219 7.355469 15.660156 C 7.085938 16.035156 6.960938 16.503906 6.65625 16.855469 C 6.488281 17.046875 6.273438 17.191406 6.101562 17.378906 C 5.867188 17.632812 5.722656 17.949219 5.582031 18.261719 C 5.367188 18.738281 5.113281 19.222656 4.894531 19.703125 " fill-opacity="1" fill-rule="nonzero"/></g><path fill="#87a634" d="M 27.027344 17.566406 C 26.898438 17.5625 26.78125 17.492188 26.667969 17.433594 C 26.496094 17.347656 26.308594 17.289062 26.117188 17.261719 C 26.140625 17.152344 26.164062 17.042969 26.226562 16.945312 C 26.285156 16.851562 26.390625 16.773438 26.503906 16.773438 C 26.613281 16.773438 26.710938 16.84375 26.796875 16.914062 C 26.925781 17.015625 27.625 17.59375 27.027344 17.566406 Z M 22.023438 14.554688 C 22.152344 14.578125 22.292969 14.617188 22.375 14.714844 C 22.457031 14.816406 22.46875 14.953125 22.472656 15.082031 C 22.476562 15.191406 22.484375 15.300781 22.449219 15.402344 C 22.414062 15.507812 22.332031 15.601562 22.222656 15.621094 C 22.121094 15.640625 22.023438 15.59375 21.929688 15.546875 C 21.808594 15.484375 21.683594 15.421875 21.558594 15.363281 C 21.480469 15.320312 21.398438 15.277344 21.355469 15.203125 C 21.335938 15.164062 21.324219 15.117188 21.316406 15.070312 C 21.292969 14.921875 21.160156 14.589844 21.296875 14.5 C 21.445312 14.398438 21.855469 14.554688 22.023438 14.554688 Z M 10.40625 13.621094 C 10.390625 13.667969 10.371094 13.722656 10.371094 13.769531 C 10.378906 13.929688 10.378906 14.125 10.238281 14.203125 C 10.171875 14.242188 10.089844 14.242188 10.015625 14.238281 C 9.71875 14.230469 9.425781 14.226562 9.128906 14.21875 C 9.132812 13.988281 9.195312 13.753906 9.3125 13.554688 C 9.328125 13.53125 9.339844 13.511719 9.359375 13.496094 C 9.390625 13.476562 9.425781 13.476562 9.460938 13.476562 C 9.757812 13.476562 10.140625 13.488281 10.40625 13.621094 Z M 15.085938 11.507812 C 15.105469 11.535156 15.125 11.574219 15.105469 11.601562 C 15.097656 11.613281 15.082031 11.621094 15.066406 11.625 C 14.917969 11.695312 14.53125 11.964844 14.375 11.878906 C 14.277344 11.824219 14.171875 11.425781 14.179688 11.3125 C 14.195312 11.136719 14.320312 10.992188 14.507812 10.949219 C 14.808594 10.882812 14.929688 11.265625 15.085938 11.507812 Z M 15.347656 17.167969 C 15.363281 17.542969 14.886719 17.445312 14.683594 17.320312 C 14.519531 17.214844 14.347656 17.089844 14.15625 17.113281 C 14.195312 16.902344 14.304688 16.703125 14.457031 16.550781 C 14.476562 16.53125 14.5 16.511719 14.527344 16.507812 C 14.554688 16.503906 14.582031 16.519531 14.605469 16.53125 C 14.824219 16.644531 15.335938 16.882812 15.347656 17.167969 Z M 19.257812 14.226562 C 19.261719 14.164062 19.242188 14.085938 19.179688 14.074219 C 19.140625 14.066406 19.105469 14.09375 19.070312 14.113281 C 18.972656 14.175781 18.863281 14.214844 18.746094 14.226562 C 18.644531 14.238281 18.527344 14.234375 18.453125 14.308594 C 18.394531 14.371094 18.390625 14.46875 18.390625 14.554688 C 18.390625 14.863281 18.394531 15.175781 18.394531 15.488281 C 18.394531 15.515625 18.8125 15.472656 18.855469 15.449219 C 18.964844 15.390625 18.984375 15.339844 19.03125 15.234375 C 19.144531 14.964844 19.25 14.515625 19.257812 14.226562 " fill-opacity="1" fill-rule="nonzero"/><path fill="#ed4742" d="M 9.847656 16.113281 C 11.101562 16.113281 12.117188 16.445312 12.117188 16.855469 L 12.117188 17.148438 C 12.117188 17.558594 11.101562 17.890625 9.847656 17.890625 C 8.59375 17.890625 7.578125 17.558594 7.578125 17.148438 L 7.578125 16.855469 C 7.578125 16.445312 8.59375 16.113281 9.847656 16.113281 Z M 14.363281 12.96875 C 15.617188 12.96875 16.632812 13.300781 16.632812 13.710938 L 16.632812 14.003906 C 16.632812 14.414062 15.617188 14.746094 14.363281 14.746094 C 13.113281 14.746094 12.097656 14.414062 12.097656 14.003906 L 12.097656 13.710938 C 12.097656 13.300781 13.113281 12.96875 14.363281 12.96875 Z M 20.535156 17.003906 L 20.535156 17.296875 C 20.535156 17.707031 21.550781 18.039062 22.804688 18.039062 C 24.054688 18.039062 25.070312 17.707031 25.070312 17.296875 L 25.070312 17.003906 C 25.070312 16.59375 24.054688 16.261719 22.804688 16.261719 C 21.550781 16.261719 20.535156 16.59375 20.535156 17.003906 " fill-opacity="1" fill-rule="nonzero"/><g clip-path="url(#id3)"><path fill="#682219" d="M 6.957031 18.429688 L 6.976562 18.308594 C 6.816406 18.28125 6.660156 18.234375 6.511719 18.164062 L 6.453125 18.273438 C 6.613281 18.351562 6.78125 18.40625 6.957031 18.429688 Z M 7.957031 15.929688 L 8.40625 15.453125 L 8.308594 15.367188 L 7.859375 15.84375 Z M 17.539062 17.753906 C 17.566406 17.785156 17.574219 17.832031 17.558594 17.863281 C 17.523438 17.9375 17.421875 17.972656 17.34375 17.976562 L 17.351562 18.101562 C 17.472656 18.09375 17.621094 18.039062 17.675781 17.910156 C 17.710938 17.839844 17.695312 17.746094 17.644531 17.675781 C 17.597656 17.617188 17.53125 17.589844 17.464844 17.601562 L 17.484375 17.726562 C 17.511719 17.722656 17.53125 17.742188 17.539062 17.753906 Z M 10.992188 12.011719 L 11.503906 11.695312 L 11.433594 11.589844 L 10.921875 11.90625 Z M 11.003906 14.949219 L 10.914062 15.042969 C 11.050781 15.164062 11.234375 15.230469 11.414062 15.230469 C 11.433594 15.230469 11.457031 15.230469 11.476562 15.226562 L 11.464844 15.101562 C 11.300781 15.117188 11.125 15.058594 11.003906 14.949219 Z M 17.835938 12.730469 L 17.957031 12.683594 C 17.882812 12.496094 17.71875 12.347656 17.519531 12.285156 L 17.480469 12.40625 C 17.640625 12.457031 17.777344 12.578125 17.835938 12.730469 Z M 16.636719 15.976562 C 16.589844 15.914062 16.582031 15.832031 16.613281 15.761719 L 16.496094 15.710938 C 16.441406 15.820312 16.457031 15.953125 16.53125 16.050781 Z M 18.441406 16.84375 L 18.394531 16.960938 C 18.457031 16.984375 18.523438 16.996094 18.585938 16.996094 C 18.683594 16.996094 18.78125 16.972656 18.871094 16.925781 C 19.027344 16.847656 19.136719 16.71875 19.179688 16.570312 L 19.054688 16.539062 C 19.023438 16.652344 18.933594 16.753906 18.8125 16.8125 C 18.691406 16.875 18.554688 16.886719 18.441406 16.84375 Z M 26.753906 16.960938 C 26.679688 16.902344 26.59375 16.839844 26.503906 16.839844 C 26.40625 16.839844 26.324219 16.910156 26.28125 16.980469 C 26.238281 17.050781 26.214844 17.128906 26.195312 17.210938 C 26.367188 17.242188 26.539062 17.300781 26.695312 17.378906 C 26.714844 17.386719 26.734375 17.398438 26.753906 17.40625 C 26.847656 17.453125 26.9375 17.5 27.03125 17.503906 C 27.152344 17.511719 27.191406 17.488281 27.199219 17.472656 C 27.222656 17.414062 27.074219 17.214844 26.753906 16.960938 Z M 27.070312 17.632812 C 27.050781 17.632812 27.035156 17.632812 27.023438 17.628906 C 26.902344 17.625 26.796875 17.570312 26.695312 17.519531 C 26.675781 17.507812 26.65625 17.5 26.636719 17.488281 C 26.472656 17.40625 26.292969 17.351562 26.105469 17.324219 L 26.039062 17.316406 L 26.050781 17.25 C 26.078125 17.140625 26.105469 17.019531 26.171875 16.914062 C 26.25 16.789062 26.378906 16.710938 26.503906 16.710938 C 26.636719 16.710938 26.746094 16.789062 26.835938 16.863281 C 27.09375 17.070312 27.386719 17.351562 27.320312 17.519531 C 27.28125 17.617188 27.148438 17.632812 27.070312 17.632812 Z M 22.410156 15.085938 C 22.402344 14.953125 22.394531 14.835938 22.324219 14.753906 C 22.257812 14.671875 22.136719 14.640625 22.015625 14.617188 C 21.953125 14.617188 21.867188 14.597656 21.769531 14.578125 C 21.617188 14.542969 21.410156 14.5 21.332031 14.550781 C 21.261719 14.597656 21.320312 14.820312 21.351562 14.9375 C 21.363281 14.984375 21.375 15.023438 21.382812 15.058594 C 21.386719 15.097656 21.394531 15.140625 21.414062 15.171875 C 21.445312 15.230469 21.511719 15.265625 21.589844 15.304688 L 21.960938 15.492188 C 22.050781 15.539062 22.132812 15.574219 22.210938 15.558594 C 22.285156 15.546875 22.355469 15.476562 22.386719 15.382812 C 22.417969 15.292969 22.414062 15.1875 22.410156 15.085938 Z M 22.234375 15.683594 C 22.214844 15.6875 22.195312 15.6875 22.175781 15.6875 C 22.070312 15.6875 21.976562 15.640625 21.902344 15.605469 L 21.53125 15.417969 C 21.457031 15.378906 21.351562 15.328125 21.300781 15.234375 C 21.273438 15.183594 21.261719 15.128906 21.253906 15.082031 C 21.25 15.050781 21.238281 15.011719 21.226562 14.96875 C 21.179688 14.789062 21.117188 14.542969 21.257812 14.445312 C 21.378906 14.363281 21.601562 14.410156 21.800781 14.453125 C 21.886719 14.472656 21.972656 14.492188 22.023438 14.492188 L 22.035156 14.492188 C 22.175781 14.519531 22.328125 14.558594 22.425781 14.675781 C 22.527344 14.796875 22.53125 14.960938 22.539062 15.078125 C 22.542969 15.1875 22.546875 15.308594 22.511719 15.421875 C 22.472656 15.53125 22.382812 15.65625 22.234375 15.683594 Z M 9.472656 13.539062 C 9.445312 13.539062 9.414062 13.539062 9.398438 13.546875 C 9.386719 13.554688 9.378906 13.570312 9.371094 13.585938 C 9.269531 13.761719 9.207031 13.957031 9.195312 14.15625 L 10.015625 14.175781 C 10.09375 14.175781 10.15625 14.175781 10.207031 14.148438 C 10.308594 14.089844 10.3125 13.9375 10.308594 13.773438 C 10.304688 13.734375 10.316406 13.691406 10.328125 13.65625 C 10.082031 13.554688 9.746094 13.539062 9.472656 13.539062 Z M 10.4375 13.769531 C 10.441406 13.921875 10.449219 14.15625 10.269531 14.257812 C 10.203125 14.296875 10.128906 14.300781 10.058594 14.300781 C 10.042969 14.300781 10.027344 14.300781 10.011719 14.300781 L 9.0625 14.28125 L 9.0625 14.21875 C 9.066406 13.976562 9.132812 13.734375 9.257812 13.523438 C 9.273438 13.496094 9.292969 13.464844 9.324219 13.445312 C 9.371094 13.414062 9.429688 13.414062 9.460938 13.414062 C 9.769531 13.414062 10.160156 13.429688 10.4375 13.566406 L 10.488281 13.59375 L 10.46875 13.648438 C 10.453125 13.683594 10.433594 13.730469 10.4375 13.769531 Z M 15.03125 11.539062 C 14.996094 11.488281 14.964844 11.425781 14.933594 11.367188 C 14.796875 11.128906 14.699219 10.972656 14.523438 11.011719 C 14.367188 11.046875 14.257812 11.167969 14.246094 11.316406 C 14.238281 11.425781 14.347656 11.789062 14.410156 11.824219 C 14.496094 11.871094 14.761719 11.722656 14.90625 11.640625 C 14.957031 11.613281 15.003906 11.585938 15.039062 11.570312 C 15.042969 11.570312 15.042969 11.566406 15.046875 11.566406 C 15.046875 11.5625 15.042969 11.554688 15.03125 11.539062 Z M 15.097656 11.683594 C 15.066406 11.699219 15.019531 11.722656 14.96875 11.75 C 14.769531 11.863281 14.589844 11.957031 14.453125 11.957031 C 14.414062 11.957031 14.375 11.949219 14.34375 11.933594 C 14.207031 11.855469 14.109375 11.414062 14.117188 11.308594 C 14.132812 11.101562 14.28125 10.9375 14.492188 10.886719 C 14.777344 10.824219 14.921875 11.082031 15.046875 11.308594 C 15.078125 11.367188 15.109375 11.421875 15.140625 11.472656 C 15.183594 11.535156 15.191406 11.589844 15.160156 11.636719 C 15.140625 11.664062 15.113281 11.675781 15.097656 11.683594 Z M 14.667969 17.234375 L 14.71875 17.265625 C 14.855469 17.351562 15.09375 17.40625 15.207031 17.339844 C 15.261719 17.3125 15.285156 17.253906 15.28125 17.171875 C 15.273438 16.941406 14.839844 16.722656 14.628906 16.613281 L 14.574219 16.585938 C 14.566406 16.582031 14.542969 16.570312 14.535156 16.570312 C 14.53125 16.574219 14.519531 16.582031 14.503906 16.597656 C 14.378906 16.71875 14.285156 16.878906 14.238281 17.046875 C 14.398438 17.0625 14.539062 17.152344 14.667969 17.234375 Z M 14.519531 16.445312 C 14.566406 16.441406 14.609375 16.460938 14.636719 16.476562 L 14.691406 16.503906 C 14.957031 16.636719 15.402344 16.863281 15.414062 17.167969 C 15.417969 17.332031 15.339844 17.414062 15.269531 17.449219 C 15.214844 17.480469 15.144531 17.496094 15.074219 17.496094 C 14.917969 17.496094 14.746094 17.433594 14.648438 17.371094 L 14.597656 17.339844 C 14.457031 17.25 14.3125 17.15625 14.164062 17.175781 L 14.078125 17.1875 L 14.09375 17.101562 C 14.136719 16.878906 14.25 16.667969 14.410156 16.507812 C 14.441406 16.480469 14.472656 16.453125 14.519531 16.445312 Z M 19.167969 14.136719 C 19.15625 14.136719 19.128906 14.152344 19.109375 14.164062 L 19.105469 14.167969 C 19 14.234375 18.878906 14.277344 18.753906 14.289062 C 18.734375 14.292969 18.71875 14.292969 18.699219 14.296875 C 18.617188 14.300781 18.542969 14.308594 18.5 14.351562 C 18.457031 14.398438 18.453125 14.472656 18.457031 14.558594 L 18.460938 15.433594 C 18.558594 15.433594 18.789062 15.40625 18.824219 15.394531 C 18.914062 15.347656 18.925781 15.316406 18.972656 15.210938 C 19.085938 14.9375 19.1875 14.496094 19.195312 14.226562 C 19.195312 14.179688 19.183594 14.140625 19.167969 14.136719 Z M 18.886719 15.503906 C 18.855469 15.519531 18.613281 15.558594 18.464844 15.558594 C 18.417969 15.558594 18.382812 15.554688 18.363281 15.546875 L 18.332031 15.523438 L 18.324219 14.554688 C 18.324219 14.449219 18.332031 14.34375 18.40625 14.265625 C 18.484375 14.1875 18.59375 14.179688 18.6875 14.167969 C 18.703125 14.167969 18.722656 14.167969 18.738281 14.164062 C 18.84375 14.152344 18.945312 14.117188 19.035156 14.0625 L 19.039062 14.058594 C 19.078125 14.035156 19.128906 14 19.191406 14.015625 C 19.277344 14.027344 19.328125 14.113281 19.324219 14.226562 C 19.316406 14.515625 19.214844 14.96875 19.089844 15.257812 C 19.042969 15.367188 19.015625 15.433594 18.886719 15.503906 Z M 9.847656 16.175781 C 8.53125 16.175781 7.644531 16.527344 7.644531 16.855469 C 7.644531 17.183594 8.53125 17.53125 9.847656 17.53125 C 11.167969 17.53125 12.050781 17.183594 12.050781 16.855469 C 12.050781 16.527344 11.167969 16.175781 9.847656 16.175781 Z M 7.644531 17.148438 C 7.644531 17.476562 8.53125 17.828125 9.847656 17.828125 C 11.167969 17.828125 12.050781 17.476562 12.050781 17.148438 L 12.050781 17.125 C 11.738281 17.4375 10.882812 17.660156 9.847656 17.660156 C 8.816406 17.660156 7.957031 17.4375 7.644531 17.125 Z M 12.179688 16.855469 L 12.179688 17.148438 C 12.179688 17.601562 11.15625 17.953125 9.847656 17.953125 C 8.539062 17.953125 7.515625 17.601562 7.515625 17.148438 L 7.515625 16.855469 C 7.515625 16.402344 8.539062 16.050781 9.847656 16.050781 C 11.15625 16.050781 12.179688 16.402344 12.179688 16.855469 Z M 25.007812 17.269531 C 24.691406 17.585938 23.835938 17.804688 22.804688 17.804688 C 21.769531 17.804688 20.914062 17.585938 20.597656 17.269531 L 20.597656 17.296875 C 20.597656 17.625 21.484375 17.976562 22.804688 17.976562 C 24.121094 17.976562 25.007812 17.625 25.007812 17.296875 Z M 22.804688 16.324219 C 21.484375 16.324219 20.597656 16.675781 20.597656 17.003906 C 20.597656 17.328125 21.484375 17.679688 22.804688 17.679688 C 24.121094 17.679688 25.007812 17.328125 25.007812 17.003906 C 25.007812 16.675781 24.121094 16.324219 22.804688 16.324219 Z M 22.804688 18.101562 C 21.496094 18.101562 20.46875 17.75 20.46875 17.296875 L 20.46875 17.003906 C 20.46875 16.550781 21.496094 16.199219 22.804688 16.199219 C 24.109375 16.199219 25.136719 16.550781 25.136719 17.003906 L 25.136719 17.296875 C 25.136719 17.75 24.109375 18.101562 22.804688 18.101562 Z M 16.570312 13.933594 C 16.253906 14.246094 15.398438 14.46875 14.363281 14.46875 C 13.332031 14.46875 12.476562 14.246094 12.160156 13.933594 L 12.160156 13.960938 C 12.160156 14.285156 13.046875 14.636719 14.363281 14.636719 C 15.683594 14.636719 16.570312 14.285156 16.570312 13.960938 Z M 14.363281 12.988281 C 13.046875 12.988281 12.160156 13.335938 12.160156 13.664062 C 12.160156 13.992188 13.046875 14.34375 14.363281 14.34375 C 15.683594 14.34375 16.570312 13.992188 16.570312 13.664062 C 16.570312 13.335938 15.683594 12.988281 14.363281 12.988281 Z M 14.363281 14.761719 C 13.054688 14.761719 12.03125 14.410156 12.03125 13.960938 L 12.03125 13.664062 C 12.03125 13.214844 13.054688 12.859375 14.363281 12.859375 C 15.671875 12.859375 16.699219 13.214844 16.699219 13.664062 L 16.699219 13.960938 C 16.699219 14.410156 15.671875 14.761719 14.363281 14.761719 Z M 21.402344 18.550781 C 23.679688 18.46875 25.605469 18.324219 28.164062 17.867188 L 28.140625 17.742188 C 25.589844 18.199219 23.667969 18.34375 21.398438 18.425781 C 20.324219 18.460938 19.230469 18.46875 18.175781 18.472656 C 16.484375 18.480469 14.734375 18.492188 13.023438 18.632812 C 12.734375 18.660156 12.441406 18.6875 12.160156 18.714844 C 11.65625 18.765625 11.136719 18.8125 10.625 18.84375 C 10.027344 18.875 9.480469 18.867188 8.945312 18.863281 C 7.945312 18.851562 7 18.839844 5.898438 19.089844 L 5.929688 19.214844 C 7.011719 18.964844 7.953125 18.976562 8.945312 18.988281 C 9.480469 18.996094 10.03125 19 10.632812 18.96875 C 11.148438 18.941406 11.667969 18.890625 12.171875 18.839844 C 12.453125 18.8125 12.746094 18.785156 13.035156 18.761719 C 14.742188 18.617188 16.488281 18.609375 18.175781 18.601562 C 19.234375 18.59375 20.328125 18.589844 21.402344 18.550781 Z M 1.628906 19.5 L 1.503906 19.515625 L 1.53125 19.714844 L 1.65625 19.695312 Z M 1.390625 19.140625 L 1.519531 19.164062 C 1.5625 18.929688 1.722656 18.71875 1.9375 18.609375 L 1.878906 18.496094 C 1.628906 18.625 1.441406 18.871094 1.390625 19.140625 Z M 1.214844 19.71875 C 1.230469 19.75 1.242188 19.785156 1.253906 19.820312 C 1.265625 19.851562 1.28125 19.886719 1.292969 19.921875 C 1.335938 20.050781 1.378906 20.167969 1.445312 20.277344 C 1.539062 20.425781 1.671875 20.523438 1.804688 20.539062 C 1.964844 20.554688 2.113281 20.46875 2.269531 20.378906 C 2.359375 20.324219 2.453125 20.269531 2.554688 20.234375 C 2.683594 20.1875 2.816406 20.175781 2.945312 20.160156 C 2.996094 20.15625 3.046875 20.152344 3.097656 20.144531 C 3.296875 20.117188 3.433594 20.054688 3.515625 19.957031 L 3.519531 19.917969 C 3.546875 19.582031 3.578125 19.199219 3.386719 18.933594 C 3.308594 18.820312 3.195312 18.730469 3.097656 18.660156 C 2.871094 18.492188 2.675781 18.390625 2.484375 18.34375 C 2.265625 18.289062 2.078125 18.269531 1.871094 18.359375 C 1.640625 18.457031 1.472656 18.5625 1.347656 18.6875 C 1.191406 18.839844 1.101562 19.023438 1.09375 19.207031 C 1.085938 19.378906 1.152344 19.550781 1.214844 19.71875 Z M 1.820312 18.242188 C 2.058594 18.140625 2.273438 18.160156 2.515625 18.222656 C 2.722656 18.273438 2.933594 18.382812 3.175781 18.558594 C 3.28125 18.636719 3.402344 18.734375 3.492188 18.859375 C 3.710938 19.164062 3.675781 19.570312 3.648438 19.925781 L 3.640625 20.007812 L 3.628906 20.019531 C 3.527344 20.152344 3.359375 20.234375 3.117188 20.269531 C 3.0625 20.277344 3.011719 20.28125 2.957031 20.285156 C 2.832031 20.300781 2.710938 20.3125 2.597656 20.351562 C 2.511719 20.386719 2.421875 20.4375 2.335938 20.488281 C 2.183594 20.574219 2.027344 20.664062 1.851562 20.664062 C 1.832031 20.664062 1.8125 20.664062 1.789062 20.664062 C 1.617188 20.640625 1.449219 20.527344 1.335938 20.34375 C 1.261719 20.222656 1.214844 20.089844 1.167969 19.960938 C 1.15625 19.929688 1.144531 19.894531 1.132812 19.863281 C 1.121094 19.828125 1.109375 19.796875 1.09375 19.761719 C 1.027344 19.582031 0.953125 19.398438 0.964844 19.199219 C 0.972656 18.988281 1.074219 18.773438 1.253906 18.597656 C 1.394531 18.460938 1.574219 18.347656 1.820312 18.242188 Z M 0.683594 19.628906 C 0.6875 19.820312 0.691406 20.039062 0.800781 20.207031 C 0.910156 20.382812 1.125 20.484375 1.300781 20.570312 L 2.382812 21.089844 C 2.640625 21.214844 2.921875 21.269531 3.261719 21.269531 C 11.179688 21.238281 19.214844 20.710938 26.984375 20.199219 C 27.742188 20.148438 28.585938 20.046875 29.015625 19.464844 C 29.328125 19.039062 29.324219 18.480469 29.257812 17.914062 C 29.226562 17.96875 29.183594 18.015625 29.132812 18.050781 C 28.996094 18.359375 28.636719 18.46875 28.488281 18.5 C 28.355469 18.527344 28.21875 18.542969 28.089844 18.554688 C 27.953125 18.566406 27.816406 18.578125 27.6875 18.609375 C 27.496094 18.652344 27.3125 18.738281 27.132812 18.816406 C 26.9375 18.90625 26.734375 18.996094 26.519531 19.042969 C 26.1875 19.109375 25.847656 19.066406 25.519531 19.019531 C 25.257812 18.984375 24.988281 18.949219 24.730469 18.972656 C 24.589844 18.984375 24.453125 19.011719 24.316406 19.042969 C 24.144531 19.078125 23.96875 19.117188 23.789062 19.121094 C 23.570312 19.128906 23.355469 19.085938 23.148438 19.046875 L 23.085938 19.035156 C 22.472656 18.921875 21.691406 18.839844 21.09375 19.199219 C 21.003906 19.253906 20.914062 19.320312 20.828125 19.386719 C 20.703125 19.480469 20.570312 19.578125 20.421875 19.648438 C 20.15625 19.773438 19.785156 19.773438 19.597656 19.539062 C 19.566406 19.496094 19.542969 19.453125 19.519531 19.410156 C 19.5 19.371094 19.480469 19.335938 19.453125 19.304688 C 19.34375 19.164062 19.132812 19.109375 18.792969 19.136719 C 18.585938 19.152344 18.375 19.175781 18.167969 19.203125 C 17.570312 19.277344 16.949219 19.351562 16.359375 19.191406 C 15.738281 19.019531 14.964844 19.050781 14.234375 19.277344 C 14.183594 19.292969 14.132812 19.308594 14.085938 19.328125 C 13.929688 19.378906 13.769531 19.433594 13.601562 19.449219 C 13.351562 19.480469 13.105469 19.429688 12.867188 19.378906 C 12.683594 19.339844 12.492188 19.300781 12.304688 19.300781 C 12.304688 19.300781 12.304688 19.300781 12.300781 19.300781 C 12.191406 19.300781 11.992188 19.320312 11.890625 19.449219 C 11.828125 19.53125 11.816406 19.636719 11.800781 19.75 C 11.789062 19.820312 11.777344 19.898438 11.753906 19.96875 C 11.695312 20.15625 11.527344 20.304688 11.308594 20.367188 C 11.238281 20.390625 11.167969 20.398438 11.101562 20.398438 C 10.957031 20.398438 10.820312 20.355469 10.714844 20.269531 C 10.652344 20.222656 10.601562 20.164062 10.550781 20.109375 C 10.519531 20.070312 10.484375 20.03125 10.449219 19.996094 C 10.242188 19.796875 9.9375 19.742188 9.71875 19.730469 C 9.542969 19.71875 9.363281 19.730469 9.191406 19.742188 C 9.089844 19.75 8.984375 19.757812 8.878906 19.761719 C 8.691406 19.765625 8.496094 19.757812 8.308594 19.746094 C 7.9375 19.730469 7.554688 19.710938 7.195312 19.808594 C 7.078125 19.839844 6.960938 19.886719 6.847656 19.929688 C 6.757812 19.964844 6.667969 20 6.574219 20.027344 C 5.914062 20.238281 5.429688 20.078125 4.863281 19.757812 L 4.8125 19.730469 L 4.835938 19.679688 C 5.109375 19.039062 4.722656 18.328125 4.21875 17.914062 C 3.761719 17.53125 3.101562 17.308594 2.257812 17.242188 C 1.949219 17.21875 1.589844 17.210938 1.261719 17.332031 C 0.910156 17.457031 0.769531 18.007812 0.734375 18.175781 C 0.664062 18.664062 0.671875 19.164062 0.683594 19.628906 Z M 29.195312 17.582031 C 28.171875 16.855469 26.996094 16.335938 25.855469 15.832031 C 25.25 15.566406 24.625 15.289062 24.03125 14.988281 C 23.085938 14.503906 22.167969 13.933594 21.285156 13.378906 C 19.945312 12.539062 18.5625 11.675781 17.058594 11.117188 C 16.296875 10.835938 15.5 10.632812 14.695312 10.511719 L 14.597656 10.496094 C 14.089844 10.417969 13.570312 10.339844 13.113281 10.496094 C 12.871094 10.578125 12.648438 10.71875 12.433594 10.851562 C 12.304688 10.929688 12.171875 11.015625 12.035156 11.085938 C 11.722656 11.246094 11.386719 11.351562 11.058594 11.453125 C 10.917969 11.5 10.769531 11.546875 10.625 11.597656 C 10.042969 11.800781 9.664062 12.046875 9.421875 12.363281 C 9.292969 12.539062 9.199219 12.746094 9.113281 12.949219 C 9.027344 13.140625 8.9375 13.34375 8.808594 13.519531 C 8.710938 13.660156 8.59375 13.785156 8.476562 13.90625 C 8.292969 14.097656 8.117188 14.28125 8.023438 14.511719 C 7.992188 14.589844 7.972656 14.671875 7.953125 14.761719 C 7.929688 14.859375 7.90625 14.960938 7.863281 15.054688 C 7.792969 15.222656 7.675781 15.363281 7.566406 15.496094 C 7.511719 15.5625 7.457031 15.628906 7.410156 15.695312 C 7.292969 15.855469 7.203125 16.042969 7.113281 16.222656 C 7 16.453125 6.878906 16.695312 6.703125 16.894531 C 6.613281 17 6.507812 17.089844 6.410156 17.175781 C 6.320312 17.253906 6.230469 17.335938 6.148438 17.421875 C 5.921875 17.667969 5.777344 17.984375 5.640625 18.285156 C 5.53125 18.527344 5.414062 18.773438 5.296875 19.007812 C 5.191406 19.226562 5.082031 19.453125 4.980469 19.675781 C 5.507812 19.96875 5.9375 20.097656 6.535156 19.90625 C 6.625 19.878906 6.714844 19.84375 6.800781 19.8125 C 6.914062 19.765625 7.035156 19.722656 7.160156 19.6875 C 7.539062 19.585938 7.933594 19.605469 8.316406 19.621094 C 8.5 19.628906 8.691406 19.640625 8.875 19.632812 C 8.976562 19.632812 9.082031 19.625 9.183594 19.617188 C 9.359375 19.605469 9.542969 19.59375 9.726562 19.605469 C 9.964844 19.617188 10.300781 19.679688 10.539062 19.90625 C 10.582031 19.945312 10.617188 19.988281 10.652344 20.027344 C 10.699219 20.082031 10.742188 20.132812 10.792969 20.171875 C 10.917969 20.269531 11.097656 20.300781 11.273438 20.246094 C 11.449219 20.195312 11.582031 20.078125 11.632812 19.929688 C 11.652344 19.871094 11.660156 19.804688 11.671875 19.734375 C 11.6875 19.609375 11.707031 19.480469 11.789062 19.375 C 11.917969 19.210938 12.140625 19.175781 12.300781 19.175781 C 12.304688 19.175781 12.304688 19.175781 12.304688 19.175781 C 12.503906 19.175781 12.703125 19.214844 12.894531 19.253906 C 13.132812 19.304688 13.355469 19.351562 13.585938 19.324219 C 13.742188 19.308594 13.886719 19.257812 14.042969 19.207031 C 14.09375 19.191406 14.144531 19.171875 14.195312 19.15625 C 14.949219 18.925781 15.75 18.890625 16.394531 19.070312 C 16.960938 19.222656 17.566406 19.148438 18.152344 19.078125 C 18.359375 19.050781 18.570312 19.023438 18.78125 19.007812 C 19.027344 18.992188 19.371094 18.992188 19.558594 19.230469 C 19.589844 19.269531 19.613281 19.3125 19.632812 19.351562 C 19.65625 19.390625 19.675781 19.429688 19.703125 19.460938 C 19.847656 19.644531 20.144531 19.636719 20.367188 19.535156 C 20.503906 19.472656 20.621094 19.382812 20.75 19.285156 C 20.839844 19.21875 20.929688 19.148438 21.027344 19.089844 C 21.660156 18.710938 22.472656 18.796875 23.109375 18.914062 L 23.175781 18.925781 C 23.375 18.960938 23.582031 19 23.785156 18.996094 C 23.953125 18.988281 24.117188 18.957031 24.289062 18.917969 C 24.425781 18.890625 24.570312 18.859375 24.71875 18.847656 C 24.992188 18.820312 25.269531 18.859375 25.539062 18.894531 C 25.867188 18.941406 26.179688 18.980469 26.492188 18.917969 C 26.695312 18.878906 26.882812 18.792969 27.078125 18.703125 C 27.261719 18.621094 27.453125 18.535156 27.65625 18.488281 C 27.796875 18.453125 27.9375 18.441406 28.074219 18.429688 C 28.203125 18.417969 28.335938 18.402344 28.460938 18.375 C 28.734375 18.316406 28.945312 18.171875 29.019531 17.988281 L 29.027344 17.96875 L 29.042969 17.957031 C 29.164062 17.878906 29.234375 17.707031 29.195312 17.582031 Z M 13.636719 8.917969 C 13.15625 8.558594 12.507812 8.398438 11.90625 8.488281 C 11.398438 8.5625 10.929688 8.804688 10.480469 9.035156 L 9.160156 9.714844 C 8.246094 10.1875 7.296875 10.679688 6.4375 11.269531 C 4.46875 12.621094 2.921875 14.539062 1.542969 16.410156 C 1.316406 16.714844 1.132812 16.972656 0.996094 17.265625 C 0.972656 17.316406 0.949219 17.367188 0.929688 17.417969 C 1.007812 17.328125 1.101562 17.253906 1.214844 17.210938 C 1.566406 17.082031 1.945312 17.089844 2.269531 17.117188 C 3.140625 17.183594 3.824219 17.417969 4.304688 17.816406 C 4.710938 18.15625 5.046875 18.675781 5.054688 19.214844 C 5.097656 19.125 5.140625 19.039062 5.179688 18.953125 C 5.296875 18.71875 5.414062 18.472656 5.523438 18.234375 C 5.664062 17.921875 5.808594 17.601562 6.050781 17.335938 C 6.136719 17.246094 6.230469 17.164062 6.324219 17.082031 C 6.421875 16.996094 6.519531 16.910156 6.605469 16.8125 C 6.773438 16.625 6.882812 16.402344 6.996094 16.167969 C 7.054688 16.046875 7.117188 15.921875 7.1875 15.804688 C 7.082031 15.867188 6.964844 15.925781 6.832031 15.972656 C 6.535156 16.085938 6.222656 16.144531 5.917969 16.203125 L 5.894531 16.078125 C 6.191406 16.023438 6.5 15.964844 6.785156 15.855469 C 7.105469 15.734375 7.347656 15.566406 7.511719 15.359375 C 7.605469 15.246094 7.6875 15.132812 7.742188 15.007812 C 7.78125 14.921875 7.804688 14.828125 7.828125 14.734375 C 7.847656 14.644531 7.871094 14.554688 7.90625 14.464844 C 8.003906 14.210938 8.195312 14.011719 8.382812 13.820312 C 8.496094 13.703125 8.613281 13.582031 8.703125 13.449219 C 8.824219 13.28125 8.910156 13.085938 8.992188 12.898438 C 9.085938 12.691406 9.179688 12.476562 9.320312 12.289062 C 9.625 11.882812 10.101562 11.65625 10.476562 11.515625 C 10.253906 11.511719 10.035156 11.46875 9.824219 11.394531 L 9.871094 11.277344 C 10.257812 11.417969 10.691406 11.429688 11.089844 11.3125 C 11.390625 11.21875 11.695312 11.117188 11.972656 10.972656 C 12.105469 10.90625 12.238281 10.824219 12.367188 10.746094 C 12.585938 10.605469 12.816406 10.464844 13.070312 10.378906 C 13.519531 10.222656 14.03125 10.285156 14.5 10.355469 C 14.414062 9.796875 14.09375 9.265625 13.636719 8.917969 Z M 0.878906 17.214844 C 1.019531 16.910156 1.207031 16.648438 1.4375 16.335938 C 2.824219 14.457031 4.378906 12.53125 6.363281 11.167969 C 7.230469 10.570312 8.183594 10.078125 9.101562 9.605469 L 10.417969 8.925781 C 10.878906 8.6875 11.355469 8.441406 11.886719 8.363281 C 12.523438 8.265625 13.207031 8.4375 13.714844 8.820312 C 14.210938 9.191406 14.550781 9.769531 14.632812 10.375 L 14.714844 10.386719 C 15.527344 10.507812 16.332031 10.714844 17.101562 11 C 18.621094 11.5625 20.011719 12.429688 21.355469 13.273438 C 22.238281 13.824219 23.148438 14.394531 24.089844 14.875 C 24.683594 15.175781 25.304688 15.453125 25.90625 15.714844 C 27.058594 16.226562 28.25 16.75 29.289062 17.488281 L 29.304688 17.5 L 29.3125 17.519531 C 29.324219 17.546875 29.328125 17.578125 29.332031 17.609375 L 29.347656 17.609375 C 29.449219 18.292969 29.511719 19.003906 29.117188 19.539062 C 28.65625 20.164062 27.78125 20.269531 26.992188 20.324219 C 19.222656 20.835938 11.183594 21.367188 3.261719 21.398438 C 3.257812 21.398438 3.253906 21.398438 3.25 21.398438 C 2.894531 21.398438 2.601562 21.335938 2.324219 21.203125 L 1.242188 20.683594 C 1.054688 20.589844 0.820312 20.480469 0.691406 20.277344 C 0.5625 20.078125 0.558594 19.828125 0.554688 19.628906 C 0.539062 18.855469 0.519531 17.976562 0.878906 17.214844 " fill-opacity="1" fill-rule="nonzero"/></g></svg>